<mxfile host="app.diagrams.net" modified="2021-02-12T23:06:07.599Z" agent="5.0 (X11; Linux x86_64) AppleWebKit/537.36 (KHTML, like Gecko) Chrome/87.0.4280.141 Safari/537.36" etag="2JsGio6nN4sSUzOyDS-N" version="14.3.1" type="github">
  <diagram id="3GIqQ9a4N6Uzozd12Fp_" name="Page-1">
    <mxGraphModel dx="1084" dy="933" grid="1" gridSize="10" guides="1" tooltips="1" connect="1" arrows="1" fold="1" page="1" pageScale="1" pageWidth="2000" pageHeight="2000" math="0" shadow="0">
      <root>
        <mxCell id="0" />
        <mxCell id="1" parent="0" />
        <mxCell id="QT_rBOWbVVg_yr-S8wlx-1" value="employe" style="shape=table;startSize=30;container=1;collapsible=1;childLayout=tableLayout;fixedRows=1;rowLines=0;fontStyle=1;align=center;resizeLast=1;" vertex="1" parent="1">
          <mxGeometry x="390" y="600" width="180" height="190" as="geometry">
            <mxRectangle x="170" y="260" width="80" height="30" as="alternateBounds" />
          </mxGeometry>
        </mxCell>
        <mxCell id="QT_rBOWbVVg_yr-S8wlx-2" value="" style="shape=partialRectangle;collapsible=0;dropTarget=0;pointerEvents=0;fillColor=none;top=0;left=0;bottom=1;right=0;points=[[0,0.5],[1,0.5]];portConstraint=eastwest;" vertex="1" parent="QT_rBOWbVVg_yr-S8wlx-1">
          <mxGeometry y="30" width="180" height="30" as="geometry" />
        </mxCell>
        <mxCell id="QT_rBOWbVVg_yr-S8wlx-3" value="PK" style="shape=partialRectangle;connectable=0;fillColor=none;top=0;left=0;bottom=0;right=0;fontStyle=1;overflow=hidden;" vertex="1" parent="QT_rBOWbVVg_yr-S8wlx-2">
          <mxGeometry width="30" height="30" as="geometry" />
        </mxCell>
        <mxCell id="QT_rBOWbVVg_yr-S8wlx-4" value="id" style="shape=partialRectangle;connectable=0;fillColor=none;top=0;left=0;bottom=0;right=0;align=left;spacingLeft=6;fontStyle=5;overflow=hidden;" vertex="1" parent="QT_rBOWbVVg_yr-S8wlx-2">
          <mxGeometry x="30" width="150" height="30" as="geometry" />
        </mxCell>
        <mxCell id="QT_rBOWbVVg_yr-S8wlx-5" value="" style="shape=partialRectangle;collapsible=0;dropTarget=0;pointerEvents=0;fillColor=none;top=0;left=0;bottom=0;right=0;points=[[0,0.5],[1,0.5]];portConstraint=eastwest;" vertex="1" parent="QT_rBOWbVVg_yr-S8wlx-1">
          <mxGeometry y="60" width="180" height="30" as="geometry" />
        </mxCell>
        <mxCell id="QT_rBOWbVVg_yr-S8wlx-6" value="" style="shape=partialRectangle;connectable=0;fillColor=none;top=0;left=0;bottom=0;right=0;editable=1;overflow=hidden;" vertex="1" parent="QT_rBOWbVVg_yr-S8wlx-5">
          <mxGeometry width="30" height="30" as="geometry" />
        </mxCell>
        <mxCell id="QT_rBOWbVVg_yr-S8wlx-7" value="firstName" style="shape=partialRectangle;connectable=0;fillColor=none;top=0;left=0;bottom=0;right=0;align=left;spacingLeft=6;overflow=hidden;" vertex="1" parent="QT_rBOWbVVg_yr-S8wlx-5">
          <mxGeometry x="30" width="150" height="30" as="geometry" />
        </mxCell>
        <mxCell id="QT_rBOWbVVg_yr-S8wlx-8" value="" style="shape=partialRectangle;collapsible=0;dropTarget=0;pointerEvents=0;fillColor=none;top=0;left=0;bottom=0;right=0;points=[[0,0.5],[1,0.5]];portConstraint=eastwest;" vertex="1" parent="QT_rBOWbVVg_yr-S8wlx-1">
          <mxGeometry y="90" width="180" height="30" as="geometry" />
        </mxCell>
        <mxCell id="QT_rBOWbVVg_yr-S8wlx-9" value="" style="shape=partialRectangle;connectable=0;fillColor=none;top=0;left=0;bottom=0;right=0;editable=1;overflow=hidden;" vertex="1" parent="QT_rBOWbVVg_yr-S8wlx-8">
          <mxGeometry width="30" height="30" as="geometry" />
        </mxCell>
        <mxCell id="QT_rBOWbVVg_yr-S8wlx-10" value="lastName" style="shape=partialRectangle;connectable=0;fillColor=none;top=0;left=0;bottom=0;right=0;align=left;spacingLeft=6;overflow=hidden;" vertex="1" parent="QT_rBOWbVVg_yr-S8wlx-8">
          <mxGeometry x="30" width="150" height="30" as="geometry" />
        </mxCell>
        <mxCell id="QT_rBOWbVVg_yr-S8wlx-210" value="" style="shape=partialRectangle;collapsible=0;dropTarget=0;pointerEvents=0;fillColor=none;top=0;left=0;bottom=0;right=0;points=[[0,0.5],[1,0.5]];portConstraint=eastwest;" vertex="1" parent="QT_rBOWbVVg_yr-S8wlx-1">
          <mxGeometry y="120" width="180" height="30" as="geometry" />
        </mxCell>
        <mxCell id="QT_rBOWbVVg_yr-S8wlx-211" value="" style="shape=partialRectangle;connectable=0;fillColor=none;top=0;left=0;bottom=0;right=0;editable=1;overflow=hidden;" vertex="1" parent="QT_rBOWbVVg_yr-S8wlx-210">
          <mxGeometry width="30" height="30" as="geometry" />
        </mxCell>
        <mxCell id="QT_rBOWbVVg_yr-S8wlx-212" value="phoneNumber" style="shape=partialRectangle;connectable=0;fillColor=none;top=0;left=0;bottom=0;right=0;align=left;spacingLeft=6;overflow=hidden;" vertex="1" parent="QT_rBOWbVVg_yr-S8wlx-210">
          <mxGeometry x="30" width="150" height="30" as="geometry" />
        </mxCell>
        <mxCell id="QT_rBOWbVVg_yr-S8wlx-11" value="" style="shape=partialRectangle;collapsible=0;dropTarget=0;pointerEvents=0;fillColor=none;top=0;left=0;bottom=0;right=0;points=[[0,0.5],[1,0.5]];portConstraint=eastwest;" vertex="1" parent="QT_rBOWbVVg_yr-S8wlx-1">
          <mxGeometry y="150" width="180" height="30" as="geometry" />
        </mxCell>
        <mxCell id="QT_rBOWbVVg_yr-S8wlx-12" value="" style="shape=partialRectangle;connectable=0;fillColor=none;top=0;left=0;bottom=0;right=0;editable=1;overflow=hidden;" vertex="1" parent="QT_rBOWbVVg_yr-S8wlx-11">
          <mxGeometry width="30" height="30" as="geometry" />
        </mxCell>
        <mxCell id="QT_rBOWbVVg_yr-S8wlx-13" value="hireDate" style="shape=partialRectangle;connectable=0;fillColor=none;top=0;left=0;bottom=0;right=0;align=left;spacingLeft=6;overflow=hidden;" vertex="1" parent="QT_rBOWbVVg_yr-S8wlx-11">
          <mxGeometry x="30" width="150" height="30" as="geometry" />
        </mxCell>
        <mxCell id="QT_rBOWbVVg_yr-S8wlx-14" value="address" style="shape=table;startSize=30;container=1;collapsible=1;childLayout=tableLayout;fixedRows=1;rowLines=0;fontStyle=1;align=center;resizeLast=1;" vertex="1" parent="1">
          <mxGeometry x="380" y="200" width="180" height="220" as="geometry" />
        </mxCell>
        <mxCell id="QT_rBOWbVVg_yr-S8wlx-15" value="" style="shape=partialRectangle;collapsible=0;dropTarget=0;pointerEvents=0;fillColor=none;top=0;left=0;bottom=1;right=0;points=[[0,0.5],[1,0.5]];portConstraint=eastwest;" vertex="1" parent="QT_rBOWbVVg_yr-S8wlx-14">
          <mxGeometry y="30" width="180" height="30" as="geometry" />
        </mxCell>
        <mxCell id="QT_rBOWbVVg_yr-S8wlx-16" value="PK,FK" style="shape=partialRectangle;connectable=0;fillColor=none;top=0;left=0;bottom=0;right=0;fontStyle=1;overflow=hidden;" vertex="1" parent="QT_rBOWbVVg_yr-S8wlx-15">
          <mxGeometry width="50" height="30" as="geometry" />
        </mxCell>
        <mxCell id="QT_rBOWbVVg_yr-S8wlx-17" value="id" style="shape=partialRectangle;connectable=0;fillColor=none;top=0;left=0;bottom=0;right=0;align=left;spacingLeft=6;fontStyle=5;overflow=hidden;" vertex="1" parent="QT_rBOWbVVg_yr-S8wlx-15">
          <mxGeometry x="50" width="130" height="30" as="geometry" />
        </mxCell>
        <mxCell id="QT_rBOWbVVg_yr-S8wlx-18" value="" style="shape=partialRectangle;collapsible=0;dropTarget=0;pointerEvents=0;fillColor=none;top=0;left=0;bottom=0;right=0;points=[[0,0.5],[1,0.5]];portConstraint=eastwest;" vertex="1" parent="QT_rBOWbVVg_yr-S8wlx-14">
          <mxGeometry y="60" width="180" height="30" as="geometry" />
        </mxCell>
        <mxCell id="QT_rBOWbVVg_yr-S8wlx-19" value="" style="shape=partialRectangle;connectable=0;fillColor=none;top=0;left=0;bottom=0;right=0;editable=1;overflow=hidden;" vertex="1" parent="QT_rBOWbVVg_yr-S8wlx-18">
          <mxGeometry width="50" height="30" as="geometry" />
        </mxCell>
        <mxCell id="QT_rBOWbVVg_yr-S8wlx-20" value="state" style="shape=partialRectangle;connectable=0;fillColor=none;top=0;left=0;bottom=0;right=0;align=left;spacingLeft=6;overflow=hidden;" vertex="1" parent="QT_rBOWbVVg_yr-S8wlx-18">
          <mxGeometry x="50" width="130" height="30" as="geometry" />
        </mxCell>
        <mxCell id="QT_rBOWbVVg_yr-S8wlx-21" value="" style="shape=partialRectangle;collapsible=0;dropTarget=0;pointerEvents=0;fillColor=none;top=0;left=0;bottom=0;right=0;points=[[0,0.5],[1,0.5]];portConstraint=eastwest;" vertex="1" parent="QT_rBOWbVVg_yr-S8wlx-14">
          <mxGeometry y="90" width="180" height="30" as="geometry" />
        </mxCell>
        <mxCell id="QT_rBOWbVVg_yr-S8wlx-22" value="" style="shape=partialRectangle;connectable=0;fillColor=none;top=0;left=0;bottom=0;right=0;editable=1;overflow=hidden;" vertex="1" parent="QT_rBOWbVVg_yr-S8wlx-21">
          <mxGeometry width="50" height="30" as="geometry" />
        </mxCell>
        <mxCell id="QT_rBOWbVVg_yr-S8wlx-23" value="zip" style="shape=partialRectangle;connectable=0;fillColor=none;top=0;left=0;bottom=0;right=0;align=left;spacingLeft=6;overflow=hidden;" vertex="1" parent="QT_rBOWbVVg_yr-S8wlx-21">
          <mxGeometry x="50" width="130" height="30" as="geometry" />
        </mxCell>
        <mxCell id="QT_rBOWbVVg_yr-S8wlx-34" value="" style="shape=partialRectangle;collapsible=0;dropTarget=0;pointerEvents=0;fillColor=none;top=0;left=0;bottom=0;right=0;points=[[0,0.5],[1,0.5]];portConstraint=eastwest;" vertex="1" parent="QT_rBOWbVVg_yr-S8wlx-14">
          <mxGeometry y="120" width="180" height="30" as="geometry" />
        </mxCell>
        <mxCell id="QT_rBOWbVVg_yr-S8wlx-35" value="" style="shape=partialRectangle;connectable=0;fillColor=none;top=0;left=0;bottom=0;right=0;editable=1;overflow=hidden;" vertex="1" parent="QT_rBOWbVVg_yr-S8wlx-34">
          <mxGeometry width="50" height="30" as="geometry" />
        </mxCell>
        <mxCell id="QT_rBOWbVVg_yr-S8wlx-36" value="city" style="shape=partialRectangle;connectable=0;fillColor=none;top=0;left=0;bottom=0;right=0;align=left;spacingLeft=6;overflow=hidden;" vertex="1" parent="QT_rBOWbVVg_yr-S8wlx-34">
          <mxGeometry x="50" width="130" height="30" as="geometry" />
        </mxCell>
        <mxCell id="QT_rBOWbVVg_yr-S8wlx-24" value="" style="shape=partialRectangle;collapsible=0;dropTarget=0;pointerEvents=0;fillColor=none;top=0;left=0;bottom=0;right=0;points=[[0,0.5],[1,0.5]];portConstraint=eastwest;" vertex="1" parent="QT_rBOWbVVg_yr-S8wlx-14">
          <mxGeometry y="150" width="180" height="30" as="geometry" />
        </mxCell>
        <mxCell id="QT_rBOWbVVg_yr-S8wlx-25" value="" style="shape=partialRectangle;connectable=0;fillColor=none;top=0;left=0;bottom=0;right=0;editable=1;overflow=hidden;" vertex="1" parent="QT_rBOWbVVg_yr-S8wlx-24">
          <mxGeometry width="50" height="30" as="geometry" />
        </mxCell>
        <mxCell id="QT_rBOWbVVg_yr-S8wlx-26" value="streetNumber" style="shape=partialRectangle;connectable=0;fillColor=none;top=0;left=0;bottom=0;right=0;align=left;spacingLeft=6;overflow=hidden;" vertex="1" parent="QT_rBOWbVVg_yr-S8wlx-24">
          <mxGeometry x="50" width="130" height="30" as="geometry" />
        </mxCell>
        <mxCell id="QT_rBOWbVVg_yr-S8wlx-31" value="" style="shape=partialRectangle;collapsible=0;dropTarget=0;pointerEvents=0;fillColor=none;top=0;left=0;bottom=0;right=0;points=[[0,0.5],[1,0.5]];portConstraint=eastwest;" vertex="1" parent="QT_rBOWbVVg_yr-S8wlx-14">
          <mxGeometry y="180" width="180" height="30" as="geometry" />
        </mxCell>
        <mxCell id="QT_rBOWbVVg_yr-S8wlx-32" value="" style="shape=partialRectangle;connectable=0;fillColor=none;top=0;left=0;bottom=0;right=0;editable=1;overflow=hidden;" vertex="1" parent="QT_rBOWbVVg_yr-S8wlx-31">
          <mxGeometry width="50" height="30" as="geometry" />
        </mxCell>
        <mxCell id="QT_rBOWbVVg_yr-S8wlx-33" value="streetName" style="shape=partialRectangle;connectable=0;fillColor=none;top=0;left=0;bottom=0;right=0;align=left;spacingLeft=6;overflow=hidden;" vertex="1" parent="QT_rBOWbVVg_yr-S8wlx-31">
          <mxGeometry x="50" width="130" height="30" as="geometry" />
        </mxCell>
        <mxCell id="QT_rBOWbVVg_yr-S8wlx-38" style="edgeStyle=orthogonalEdgeStyle;rounded=0;orthogonalLoop=1;jettySize=auto;html=1;entryX=0;entryY=0.5;entryDx=0;entryDy=0;exitX=0;exitY=0.5;exitDx=0;exitDy=0;" edge="1" parent="1" source="QT_rBOWbVVg_yr-S8wlx-15" target="QT_rBOWbVVg_yr-S8wlx-2">
          <mxGeometry relative="1" as="geometry">
            <mxPoint x="380" y="560" as="targetPoint" />
            <Array as="points">
              <mxPoint x="340" y="245" />
              <mxPoint x="340" y="645" />
            </Array>
          </mxGeometry>
        </mxCell>
        <mxCell id="QT_rBOWbVVg_yr-S8wlx-39" value="customer" style="shape=table;startSize=30;container=1;collapsible=1;childLayout=tableLayout;fixedRows=1;rowLines=0;fontStyle=1;align=center;resizeLast=1;" vertex="1" parent="1">
          <mxGeometry x="620" y="200" width="180" height="150" as="geometry" />
        </mxCell>
        <mxCell id="QT_rBOWbVVg_yr-S8wlx-40" value="" style="shape=partialRectangle;collapsible=0;dropTarget=0;pointerEvents=0;fillColor=none;top=0;left=0;bottom=1;right=0;points=[[0,0.5],[1,0.5]];portConstraint=eastwest;" vertex="1" parent="QT_rBOWbVVg_yr-S8wlx-39">
          <mxGeometry y="30" width="180" height="30" as="geometry" />
        </mxCell>
        <mxCell id="QT_rBOWbVVg_yr-S8wlx-41" value="PK,FK" style="shape=partialRectangle;connectable=0;fillColor=none;top=0;left=0;bottom=0;right=0;fontStyle=1;overflow=hidden;" vertex="1" parent="QT_rBOWbVVg_yr-S8wlx-40">
          <mxGeometry width="50.00000000000023" height="30" as="geometry" />
        </mxCell>
        <mxCell id="QT_rBOWbVVg_yr-S8wlx-42" value="id" style="shape=partialRectangle;connectable=0;fillColor=none;top=0;left=0;bottom=0;right=0;align=left;spacingLeft=6;fontStyle=5;overflow=hidden;" vertex="1" parent="QT_rBOWbVVg_yr-S8wlx-40">
          <mxGeometry x="50.00000000000023" width="129.99999999999977" height="30" as="geometry" />
        </mxCell>
        <mxCell id="QT_rBOWbVVg_yr-S8wlx-43" value="" style="shape=partialRectangle;collapsible=0;dropTarget=0;pointerEvents=0;fillColor=none;top=0;left=0;bottom=0;right=0;points=[[0,0.5],[1,0.5]];portConstraint=eastwest;" vertex="1" parent="QT_rBOWbVVg_yr-S8wlx-39">
          <mxGeometry y="60" width="180" height="30" as="geometry" />
        </mxCell>
        <mxCell id="QT_rBOWbVVg_yr-S8wlx-44" value="" style="shape=partialRectangle;connectable=0;fillColor=none;top=0;left=0;bottom=0;right=0;editable=1;overflow=hidden;" vertex="1" parent="QT_rBOWbVVg_yr-S8wlx-43">
          <mxGeometry width="50.00000000000023" height="30" as="geometry" />
        </mxCell>
        <mxCell id="QT_rBOWbVVg_yr-S8wlx-45" value="name" style="shape=partialRectangle;connectable=0;fillColor=none;top=0;left=0;bottom=0;right=0;align=left;spacingLeft=6;overflow=hidden;" vertex="1" parent="QT_rBOWbVVg_yr-S8wlx-43">
          <mxGeometry x="50.00000000000023" width="129.99999999999977" height="30" as="geometry" />
        </mxCell>
        <mxCell id="QT_rBOWbVVg_yr-S8wlx-207" value="" style="shape=partialRectangle;collapsible=0;dropTarget=0;pointerEvents=0;fillColor=none;top=0;left=0;bottom=0;right=0;points=[[0,0.5],[1,0.5]];portConstraint=eastwest;" vertex="1" parent="QT_rBOWbVVg_yr-S8wlx-39">
          <mxGeometry y="90" width="180" height="30" as="geometry" />
        </mxCell>
        <mxCell id="QT_rBOWbVVg_yr-S8wlx-208" value="" style="shape=partialRectangle;connectable=0;fillColor=none;top=0;left=0;bottom=0;right=0;editable=1;overflow=hidden;" vertex="1" parent="QT_rBOWbVVg_yr-S8wlx-207">
          <mxGeometry width="50.00000000000023" height="30" as="geometry" />
        </mxCell>
        <mxCell id="QT_rBOWbVVg_yr-S8wlx-209" value="phoneNumber" style="shape=partialRectangle;connectable=0;fillColor=none;top=0;left=0;bottom=0;right=0;align=left;spacingLeft=6;overflow=hidden;" vertex="1" parent="QT_rBOWbVVg_yr-S8wlx-207">
          <mxGeometry x="50.00000000000023" width="129.99999999999977" height="30" as="geometry" />
        </mxCell>
        <mxCell id="QT_rBOWbVVg_yr-S8wlx-46" value="" style="shape=partialRectangle;collapsible=0;dropTarget=0;pointerEvents=0;fillColor=none;top=0;left=0;bottom=0;right=0;points=[[0,0.5],[1,0.5]];portConstraint=eastwest;" vertex="1" parent="QT_rBOWbVVg_yr-S8wlx-39">
          <mxGeometry y="120" width="180" height="30" as="geometry" />
        </mxCell>
        <mxCell id="QT_rBOWbVVg_yr-S8wlx-47" value="" style="shape=partialRectangle;connectable=0;fillColor=none;top=0;left=0;bottom=0;right=0;editable=1;overflow=hidden;" vertex="1" parent="QT_rBOWbVVg_yr-S8wlx-46">
          <mxGeometry width="50.00000000000023" height="30" as="geometry" />
        </mxCell>
        <mxCell id="QT_rBOWbVVg_yr-S8wlx-48" value="faxNumber" style="shape=partialRectangle;connectable=0;fillColor=none;top=0;left=0;bottom=0;right=0;align=left;spacingLeft=6;overflow=hidden;" vertex="1" parent="QT_rBOWbVVg_yr-S8wlx-46">
          <mxGeometry x="50.00000000000023" width="129.99999999999977" height="30" as="geometry" />
        </mxCell>
        <mxCell id="QT_rBOWbVVg_yr-S8wlx-52" style="edgeStyle=orthogonalEdgeStyle;rounded=0;orthogonalLoop=1;jettySize=auto;html=1;entryX=0;entryY=0.5;entryDx=0;entryDy=0;" edge="1" parent="1" source="QT_rBOWbVVg_yr-S8wlx-15" target="QT_rBOWbVVg_yr-S8wlx-40">
          <mxGeometry relative="1" as="geometry" />
        </mxCell>
        <mxCell id="QT_rBOWbVVg_yr-S8wlx-55" value="type" style="shape=table;startSize=30;container=1;collapsible=1;childLayout=tableLayout;fixedRows=1;rowLines=0;fontStyle=1;align=center;resizeLast=1;" vertex="1" parent="1">
          <mxGeometry x="880" y="200" width="180" height="100" as="geometry" />
        </mxCell>
        <mxCell id="QT_rBOWbVVg_yr-S8wlx-56" value="" style="shape=partialRectangle;collapsible=0;dropTarget=0;pointerEvents=0;fillColor=none;top=0;left=0;bottom=1;right=0;points=[[0,0.5],[1,0.5]];portConstraint=eastwest;" vertex="1" parent="QT_rBOWbVVg_yr-S8wlx-55">
          <mxGeometry y="30" width="180" height="30" as="geometry" />
        </mxCell>
        <mxCell id="QT_rBOWbVVg_yr-S8wlx-57" value="PK,FK" style="shape=partialRectangle;connectable=0;fillColor=none;top=0;left=0;bottom=0;right=0;fontStyle=1;overflow=hidden;" vertex="1" parent="QT_rBOWbVVg_yr-S8wlx-56">
          <mxGeometry width="50.00000000000023" height="30" as="geometry" />
        </mxCell>
        <mxCell id="QT_rBOWbVVg_yr-S8wlx-58" value="id" style="shape=partialRectangle;connectable=0;fillColor=none;top=0;left=0;bottom=0;right=0;align=left;spacingLeft=6;fontStyle=5;overflow=hidden;" vertex="1" parent="QT_rBOWbVVg_yr-S8wlx-56">
          <mxGeometry x="50.00000000000023" width="129.99999999999977" height="30" as="geometry" />
        </mxCell>
        <mxCell id="QT_rBOWbVVg_yr-S8wlx-59" value="" style="shape=partialRectangle;collapsible=0;dropTarget=0;pointerEvents=0;fillColor=none;top=0;left=0;bottom=0;right=0;points=[[0,0.5],[1,0.5]];portConstraint=eastwest;" vertex="1" parent="QT_rBOWbVVg_yr-S8wlx-55">
          <mxGeometry y="60" width="180" height="30" as="geometry" />
        </mxCell>
        <mxCell id="QT_rBOWbVVg_yr-S8wlx-60" value="" style="shape=partialRectangle;connectable=0;fillColor=none;top=0;left=0;bottom=0;right=0;editable=1;overflow=hidden;" vertex="1" parent="QT_rBOWbVVg_yr-S8wlx-59">
          <mxGeometry width="50.00000000000023" height="30" as="geometry" />
        </mxCell>
        <mxCell id="QT_rBOWbVVg_yr-S8wlx-61" value="type" style="shape=partialRectangle;connectable=0;fillColor=none;top=0;left=0;bottom=0;right=0;align=left;spacingLeft=6;overflow=hidden;" vertex="1" parent="QT_rBOWbVVg_yr-S8wlx-59">
          <mxGeometry x="50.00000000000023" width="129.99999999999977" height="30" as="geometry" />
        </mxCell>
        <mxCell id="QT_rBOWbVVg_yr-S8wlx-68" style="edgeStyle=orthogonalEdgeStyle;rounded=0;orthogonalLoop=1;jettySize=auto;html=1;entryX=1;entryY=0.5;entryDx=0;entryDy=0;" edge="1" parent="1" source="QT_rBOWbVVg_yr-S8wlx-56" target="QT_rBOWbVVg_yr-S8wlx-40">
          <mxGeometry relative="1" as="geometry" />
        </mxCell>
        <mxCell id="QT_rBOWbVVg_yr-S8wlx-82" value="pet" style="shape=table;startSize=30;container=1;collapsible=1;childLayout=tableLayout;fixedRows=1;rowLines=0;fontStyle=1;align=center;resizeLast=1;" vertex="1" parent="1">
          <mxGeometry x="880" y="540" width="180" height="190" as="geometry" />
        </mxCell>
        <mxCell id="QT_rBOWbVVg_yr-S8wlx-83" value="" style="shape=partialRectangle;collapsible=0;dropTarget=0;pointerEvents=0;fillColor=none;top=0;left=0;bottom=1;right=0;points=[[0,0.5],[1,0.5]];portConstraint=eastwest;" vertex="1" parent="QT_rBOWbVVg_yr-S8wlx-82">
          <mxGeometry y="30" width="180" height="30" as="geometry" />
        </mxCell>
        <mxCell id="QT_rBOWbVVg_yr-S8wlx-84" value="PK" style="shape=partialRectangle;connectable=0;fillColor=none;top=0;left=0;bottom=0;right=0;fontStyle=1;overflow=hidden;" vertex="1" parent="QT_rBOWbVVg_yr-S8wlx-83">
          <mxGeometry width="30.000000000000227" height="30" as="geometry" />
        </mxCell>
        <mxCell id="QT_rBOWbVVg_yr-S8wlx-85" value="id" style="shape=partialRectangle;connectable=0;fillColor=none;top=0;left=0;bottom=0;right=0;align=left;spacingLeft=6;fontStyle=5;overflow=hidden;" vertex="1" parent="QT_rBOWbVVg_yr-S8wlx-83">
          <mxGeometry x="30.000000000000227" width="149.99999999999977" height="30" as="geometry" />
        </mxCell>
        <mxCell id="QT_rBOWbVVg_yr-S8wlx-136" value="" style="shape=partialRectangle;collapsible=0;dropTarget=0;pointerEvents=0;fillColor=none;top=0;left=0;bottom=0;right=0;points=[[0,0.5],[1,0.5]];portConstraint=eastwest;" vertex="1" parent="QT_rBOWbVVg_yr-S8wlx-82">
          <mxGeometry y="60" width="180" height="30" as="geometry" />
        </mxCell>
        <mxCell id="QT_rBOWbVVg_yr-S8wlx-137" value="FK" style="shape=partialRectangle;connectable=0;fillColor=none;top=0;left=0;bottom=0;right=0;fontStyle=0;overflow=hidden;" vertex="1" parent="QT_rBOWbVVg_yr-S8wlx-136">
          <mxGeometry width="30.000000000000227" height="30" as="geometry" />
        </mxCell>
        <mxCell id="QT_rBOWbVVg_yr-S8wlx-138" value="owner" style="shape=partialRectangle;connectable=0;fillColor=none;top=0;left=0;bottom=0;right=0;align=left;spacingLeft=6;fontStyle=0;overflow=hidden;" vertex="1" parent="QT_rBOWbVVg_yr-S8wlx-136">
          <mxGeometry x="30.000000000000227" width="149.99999999999977" height="30" as="geometry" />
        </mxCell>
        <mxCell id="QT_rBOWbVVg_yr-S8wlx-86" value="" style="shape=partialRectangle;collapsible=0;dropTarget=0;pointerEvents=0;fillColor=none;top=0;left=0;bottom=0;right=0;points=[[0,0.5],[1,0.5]];portConstraint=eastwest;" vertex="1" parent="QT_rBOWbVVg_yr-S8wlx-82">
          <mxGeometry y="90" width="180" height="30" as="geometry" />
        </mxCell>
        <mxCell id="QT_rBOWbVVg_yr-S8wlx-87" value="" style="shape=partialRectangle;connectable=0;fillColor=none;top=0;left=0;bottom=0;right=0;editable=1;overflow=hidden;" vertex="1" parent="QT_rBOWbVVg_yr-S8wlx-86">
          <mxGeometry width="30.000000000000227" height="30" as="geometry" />
        </mxCell>
        <mxCell id="QT_rBOWbVVg_yr-S8wlx-88" value="name" style="shape=partialRectangle;connectable=0;fillColor=none;top=0;left=0;bottom=0;right=0;align=left;spacingLeft=6;overflow=hidden;" vertex="1" parent="QT_rBOWbVVg_yr-S8wlx-86">
          <mxGeometry x="30.000000000000227" width="149.99999999999977" height="30" as="geometry" />
        </mxCell>
        <mxCell id="QT_rBOWbVVg_yr-S8wlx-89" value="" style="shape=partialRectangle;collapsible=0;dropTarget=0;pointerEvents=0;fillColor=none;top=0;left=0;bottom=0;right=0;points=[[0,0.5],[1,0.5]];portConstraint=eastwest;" vertex="1" parent="QT_rBOWbVVg_yr-S8wlx-82">
          <mxGeometry y="120" width="180" height="30" as="geometry" />
        </mxCell>
        <mxCell id="QT_rBOWbVVg_yr-S8wlx-90" value="" style="shape=partialRectangle;connectable=0;fillColor=none;top=0;left=0;bottom=0;right=0;editable=1;overflow=hidden;" vertex="1" parent="QT_rBOWbVVg_yr-S8wlx-89">
          <mxGeometry width="30.000000000000227" height="30" as="geometry" />
        </mxCell>
        <mxCell id="QT_rBOWbVVg_yr-S8wlx-91" value="gender" style="shape=partialRectangle;connectable=0;fillColor=none;top=0;left=0;bottom=0;right=0;align=left;spacingLeft=6;overflow=hidden;" vertex="1" parent="QT_rBOWbVVg_yr-S8wlx-89">
          <mxGeometry x="30.000000000000227" width="149.99999999999977" height="30" as="geometry" />
        </mxCell>
        <mxCell id="QT_rBOWbVVg_yr-S8wlx-140" value="" style="shape=partialRectangle;collapsible=0;dropTarget=0;pointerEvents=0;fillColor=none;top=0;left=0;bottom=0;right=0;points=[[0,0.5],[1,0.5]];portConstraint=eastwest;" vertex="1" parent="QT_rBOWbVVg_yr-S8wlx-82">
          <mxGeometry y="150" width="180" height="30" as="geometry" />
        </mxCell>
        <mxCell id="QT_rBOWbVVg_yr-S8wlx-141" value="" style="shape=partialRectangle;connectable=0;fillColor=none;top=0;left=0;bottom=0;right=0;editable=1;overflow=hidden;" vertex="1" parent="QT_rBOWbVVg_yr-S8wlx-140">
          <mxGeometry width="30.000000000000227" height="30" as="geometry" />
        </mxCell>
        <mxCell id="QT_rBOWbVVg_yr-S8wlx-142" value="dateOfBirth" style="shape=partialRectangle;connectable=0;fillColor=none;top=0;left=0;bottom=0;right=0;align=left;spacingLeft=6;overflow=hidden;" vertex="1" parent="QT_rBOWbVVg_yr-S8wlx-140">
          <mxGeometry x="30.000000000000227" width="149.99999999999977" height="30" as="geometry" />
        </mxCell>
        <mxCell id="QT_rBOWbVVg_yr-S8wlx-108" value="type" style="shape=table;startSize=30;container=1;collapsible=1;childLayout=tableLayout;fixedRows=1;rowLines=0;fontStyle=1;align=center;resizeLast=1;" vertex="1" parent="1">
          <mxGeometry x="1140" y="540" width="180" height="100" as="geometry" />
        </mxCell>
        <mxCell id="QT_rBOWbVVg_yr-S8wlx-109" value="" style="shape=partialRectangle;collapsible=0;dropTarget=0;pointerEvents=0;fillColor=none;top=0;left=0;bottom=1;right=0;points=[[0,0.5],[1,0.5]];portConstraint=eastwest;" vertex="1" parent="QT_rBOWbVVg_yr-S8wlx-108">
          <mxGeometry y="30" width="180" height="30" as="geometry" />
        </mxCell>
        <mxCell id="QT_rBOWbVVg_yr-S8wlx-110" value="PK,FK" style="shape=partialRectangle;connectable=0;fillColor=none;top=0;left=0;bottom=0;right=0;fontStyle=1;overflow=hidden;" vertex="1" parent="QT_rBOWbVVg_yr-S8wlx-109">
          <mxGeometry width="50.00000000000023" height="30" as="geometry" />
        </mxCell>
        <mxCell id="QT_rBOWbVVg_yr-S8wlx-111" value="id" style="shape=partialRectangle;connectable=0;fillColor=none;top=0;left=0;bottom=0;right=0;align=left;spacingLeft=6;fontStyle=5;overflow=hidden;" vertex="1" parent="QT_rBOWbVVg_yr-S8wlx-109">
          <mxGeometry x="50.00000000000023" width="129.99999999999977" height="30" as="geometry" />
        </mxCell>
        <mxCell id="QT_rBOWbVVg_yr-S8wlx-112" value="" style="shape=partialRectangle;collapsible=0;dropTarget=0;pointerEvents=0;fillColor=none;top=0;left=0;bottom=0;right=0;points=[[0,0.5],[1,0.5]];portConstraint=eastwest;" vertex="1" parent="QT_rBOWbVVg_yr-S8wlx-108">
          <mxGeometry y="60" width="180" height="30" as="geometry" />
        </mxCell>
        <mxCell id="QT_rBOWbVVg_yr-S8wlx-113" value="" style="shape=partialRectangle;connectable=0;fillColor=none;top=0;left=0;bottom=0;right=0;editable=1;overflow=hidden;" vertex="1" parent="QT_rBOWbVVg_yr-S8wlx-112">
          <mxGeometry width="50.00000000000023" height="30" as="geometry" />
        </mxCell>
        <mxCell id="QT_rBOWbVVg_yr-S8wlx-114" value="type" style="shape=partialRectangle;connectable=0;fillColor=none;top=0;left=0;bottom=0;right=0;align=left;spacingLeft=6;overflow=hidden;" vertex="1" parent="QT_rBOWbVVg_yr-S8wlx-112">
          <mxGeometry x="50.00000000000023" width="129.99999999999977" height="30" as="geometry" />
        </mxCell>
        <mxCell id="QT_rBOWbVVg_yr-S8wlx-121" style="edgeStyle=orthogonalEdgeStyle;rounded=0;orthogonalLoop=1;jettySize=auto;html=1;entryX=1;entryY=0.5;entryDx=0;entryDy=0;" edge="1" parent="1" source="QT_rBOWbVVg_yr-S8wlx-109" target="QT_rBOWbVVg_yr-S8wlx-83">
          <mxGeometry relative="1" as="geometry" />
        </mxCell>
        <mxCell id="QT_rBOWbVVg_yr-S8wlx-122" value="breed" style="shape=table;startSize=30;container=1;collapsible=1;childLayout=tableLayout;fixedRows=1;rowLines=0;fontStyle=1;align=center;resizeLast=1;" vertex="1" parent="1">
          <mxGeometry x="1410" y="540" width="180" height="130" as="geometry" />
        </mxCell>
        <mxCell id="QT_rBOWbVVg_yr-S8wlx-123" value="" style="shape=partialRectangle;collapsible=0;dropTarget=0;pointerEvents=0;fillColor=none;top=0;left=0;bottom=1;right=0;points=[[0,0.5],[1,0.5]];portConstraint=eastwest;" vertex="1" parent="QT_rBOWbVVg_yr-S8wlx-122">
          <mxGeometry y="30" width="180" height="30" as="geometry" />
        </mxCell>
        <mxCell id="QT_rBOWbVVg_yr-S8wlx-124" value="PK" style="shape=partialRectangle;connectable=0;fillColor=none;top=0;left=0;bottom=0;right=0;fontStyle=1;overflow=hidden;" vertex="1" parent="QT_rBOWbVVg_yr-S8wlx-123">
          <mxGeometry width="30" height="30" as="geometry" />
        </mxCell>
        <mxCell id="QT_rBOWbVVg_yr-S8wlx-125" value="id" style="shape=partialRectangle;connectable=0;fillColor=none;top=0;left=0;bottom=0;right=0;align=left;spacingLeft=6;fontStyle=5;overflow=hidden;" vertex="1" parent="QT_rBOWbVVg_yr-S8wlx-123">
          <mxGeometry x="30" width="150" height="30" as="geometry" />
        </mxCell>
        <mxCell id="QT_rBOWbVVg_yr-S8wlx-126" value="" style="shape=partialRectangle;collapsible=0;dropTarget=0;pointerEvents=0;fillColor=none;top=0;left=0;bottom=0;right=0;points=[[0,0.5],[1,0.5]];portConstraint=eastwest;" vertex="1" parent="QT_rBOWbVVg_yr-S8wlx-122">
          <mxGeometry y="60" width="180" height="30" as="geometry" />
        </mxCell>
        <mxCell id="QT_rBOWbVVg_yr-S8wlx-127" value="FK" style="shape=partialRectangle;connectable=0;fillColor=none;top=0;left=0;bottom=0;right=0;editable=1;overflow=hidden;" vertex="1" parent="QT_rBOWbVVg_yr-S8wlx-126">
          <mxGeometry width="30" height="30" as="geometry" />
        </mxCell>
        <mxCell id="QT_rBOWbVVg_yr-S8wlx-128" value="typeID" style="shape=partialRectangle;connectable=0;fillColor=none;top=0;left=0;bottom=0;right=0;align=left;spacingLeft=6;overflow=hidden;" vertex="1" parent="QT_rBOWbVVg_yr-S8wlx-126">
          <mxGeometry x="30" width="150" height="30" as="geometry" />
        </mxCell>
        <mxCell id="QT_rBOWbVVg_yr-S8wlx-129" value="" style="shape=partialRectangle;collapsible=0;dropTarget=0;pointerEvents=0;fillColor=none;top=0;left=0;bottom=0;right=0;points=[[0,0.5],[1,0.5]];portConstraint=eastwest;" vertex="1" parent="QT_rBOWbVVg_yr-S8wlx-122">
          <mxGeometry y="90" width="180" height="30" as="geometry" />
        </mxCell>
        <mxCell id="QT_rBOWbVVg_yr-S8wlx-130" value="" style="shape=partialRectangle;connectable=0;fillColor=none;top=0;left=0;bottom=0;right=0;editable=1;overflow=hidden;" vertex="1" parent="QT_rBOWbVVg_yr-S8wlx-129">
          <mxGeometry width="30" height="30" as="geometry" />
        </mxCell>
        <mxCell id="QT_rBOWbVVg_yr-S8wlx-131" value="breed" style="shape=partialRectangle;connectable=0;fillColor=none;top=0;left=0;bottom=0;right=0;align=left;spacingLeft=6;overflow=hidden;" vertex="1" parent="QT_rBOWbVVg_yr-S8wlx-129">
          <mxGeometry x="30" width="150" height="30" as="geometry" />
        </mxCell>
        <mxCell id="QT_rBOWbVVg_yr-S8wlx-135" style="edgeStyle=orthogonalEdgeStyle;rounded=0;orthogonalLoop=1;jettySize=auto;html=1;entryX=1;entryY=0.5;entryDx=0;entryDy=0;" edge="1" parent="1" source="QT_rBOWbVVg_yr-S8wlx-126" target="QT_rBOWbVVg_yr-S8wlx-109">
          <mxGeometry relative="1" as="geometry" />
        </mxCell>
        <mxCell id="QT_rBOWbVVg_yr-S8wlx-139" style="edgeStyle=orthogonalEdgeStyle;rounded=0;orthogonalLoop=1;jettySize=auto;html=1;entryX=1;entryY=0.5;entryDx=0;entryDy=0;" edge="1" parent="1" source="QT_rBOWbVVg_yr-S8wlx-136" target="QT_rBOWbVVg_yr-S8wlx-40">
          <mxGeometry relative="1" as="geometry" />
        </mxCell>
        <mxCell id="QT_rBOWbVVg_yr-S8wlx-143" value="visit" style="shape=table;startSize=30;container=1;collapsible=1;childLayout=tableLayout;fixedRows=1;rowLines=0;fontStyle=1;align=center;resizeLast=1;" vertex="1" parent="1">
          <mxGeometry x="620" y="540" width="180" height="160" as="geometry" />
        </mxCell>
        <mxCell id="QT_rBOWbVVg_yr-S8wlx-144" value="" style="shape=partialRectangle;collapsible=0;dropTarget=0;pointerEvents=0;fillColor=none;top=0;left=0;bottom=1;right=0;points=[[0,0.5],[1,0.5]];portConstraint=eastwest;" vertex="1" parent="QT_rBOWbVVg_yr-S8wlx-143">
          <mxGeometry y="30" width="180" height="30" as="geometry" />
        </mxCell>
        <mxCell id="QT_rBOWbVVg_yr-S8wlx-145" value="PK" style="shape=partialRectangle;connectable=0;fillColor=none;top=0;left=0;bottom=0;right=0;fontStyle=1;overflow=hidden;" vertex="1" parent="QT_rBOWbVVg_yr-S8wlx-144">
          <mxGeometry width="30" height="30" as="geometry" />
        </mxCell>
        <mxCell id="QT_rBOWbVVg_yr-S8wlx-146" value="id" style="shape=partialRectangle;connectable=0;fillColor=none;top=0;left=0;bottom=0;right=0;align=left;spacingLeft=6;fontStyle=5;overflow=hidden;" vertex="1" parent="QT_rBOWbVVg_yr-S8wlx-144">
          <mxGeometry x="30" width="150" height="30" as="geometry" />
        </mxCell>
        <mxCell id="QT_rBOWbVVg_yr-S8wlx-147" value="" style="shape=partialRectangle;collapsible=0;dropTarget=0;pointerEvents=0;fillColor=none;top=0;left=0;bottom=0;right=0;points=[[0,0.5],[1,0.5]];portConstraint=eastwest;" vertex="1" parent="QT_rBOWbVVg_yr-S8wlx-143">
          <mxGeometry y="60" width="180" height="30" as="geometry" />
        </mxCell>
        <mxCell id="QT_rBOWbVVg_yr-S8wlx-148" value="FK" style="shape=partialRectangle;connectable=0;fillColor=none;top=0;left=0;bottom=0;right=0;editable=1;overflow=hidden;" vertex="1" parent="QT_rBOWbVVg_yr-S8wlx-147">
          <mxGeometry width="30" height="30" as="geometry" />
        </mxCell>
        <mxCell id="QT_rBOWbVVg_yr-S8wlx-149" value="pedID" style="shape=partialRectangle;connectable=0;fillColor=none;top=0;left=0;bottom=0;right=0;align=left;spacingLeft=6;overflow=hidden;" vertex="1" parent="QT_rBOWbVVg_yr-S8wlx-147">
          <mxGeometry x="30" width="150" height="30" as="geometry" />
        </mxCell>
        <mxCell id="QT_rBOWbVVg_yr-S8wlx-150" value="" style="shape=partialRectangle;collapsible=0;dropTarget=0;pointerEvents=0;fillColor=none;top=0;left=0;bottom=0;right=0;points=[[0,0.5],[1,0.5]];portConstraint=eastwest;" vertex="1" parent="QT_rBOWbVVg_yr-S8wlx-143">
          <mxGeometry y="90" width="180" height="30" as="geometry" />
        </mxCell>
        <mxCell id="QT_rBOWbVVg_yr-S8wlx-151" value="FK" style="shape=partialRectangle;connectable=0;fillColor=none;top=0;left=0;bottom=0;right=0;editable=1;overflow=hidden;" vertex="1" parent="QT_rBOWbVVg_yr-S8wlx-150">
          <mxGeometry width="30" height="30" as="geometry" />
        </mxCell>
        <mxCell id="QT_rBOWbVVg_yr-S8wlx-152" value="employeID" style="shape=partialRectangle;connectable=0;fillColor=none;top=0;left=0;bottom=0;right=0;align=left;spacingLeft=6;overflow=hidden;" vertex="1" parent="QT_rBOWbVVg_yr-S8wlx-150">
          <mxGeometry x="30" width="150" height="30" as="geometry" />
        </mxCell>
        <mxCell id="QT_rBOWbVVg_yr-S8wlx-170" value="" style="shape=partialRectangle;collapsible=0;dropTarget=0;pointerEvents=0;fillColor=none;top=0;left=0;bottom=0;right=0;points=[[0,0.5],[1,0.5]];portConstraint=eastwest;" vertex="1" parent="QT_rBOWbVVg_yr-S8wlx-143">
          <mxGeometry y="120" width="180" height="30" as="geometry" />
        </mxCell>
        <mxCell id="QT_rBOWbVVg_yr-S8wlx-171" value="FK" style="shape=partialRectangle;connectable=0;fillColor=none;top=0;left=0;bottom=0;right=0;fontStyle=0;overflow=hidden;" vertex="1" parent="QT_rBOWbVVg_yr-S8wlx-170">
          <mxGeometry width="30" height="30" as="geometry" />
        </mxCell>
        <mxCell id="QT_rBOWbVVg_yr-S8wlx-172" value="treatmentID" style="shape=partialRectangle;connectable=0;fillColor=none;top=0;left=0;bottom=0;right=0;align=left;spacingLeft=6;fontStyle=0;overflow=hidden;" vertex="1" parent="QT_rBOWbVVg_yr-S8wlx-170">
          <mxGeometry x="30" width="150" height="30" as="geometry" />
        </mxCell>
        <mxCell id="QT_rBOWbVVg_yr-S8wlx-156" style="edgeStyle=orthogonalEdgeStyle;rounded=0;orthogonalLoop=1;jettySize=auto;html=1;entryX=0;entryY=0.5;entryDx=0;entryDy=0;" edge="1" parent="1" source="QT_rBOWbVVg_yr-S8wlx-144" target="QT_rBOWbVVg_yr-S8wlx-83">
          <mxGeometry relative="1" as="geometry" />
        </mxCell>
        <mxCell id="QT_rBOWbVVg_yr-S8wlx-157" value="treatment" style="shape=table;startSize=30;container=1;collapsible=1;childLayout=tableLayout;fixedRows=1;rowLines=0;fontStyle=1;align=center;resizeLast=1;" vertex="1" parent="1">
          <mxGeometry x="880" y="760" width="180" height="130" as="geometry" />
        </mxCell>
        <mxCell id="QT_rBOWbVVg_yr-S8wlx-158" value="" style="shape=partialRectangle;collapsible=0;dropTarget=0;pointerEvents=0;fillColor=none;top=0;left=0;bottom=1;right=0;points=[[0,0.5],[1,0.5]];portConstraint=eastwest;" vertex="1" parent="QT_rBOWbVVg_yr-S8wlx-157">
          <mxGeometry y="30" width="180" height="30" as="geometry" />
        </mxCell>
        <mxCell id="QT_rBOWbVVg_yr-S8wlx-159" value="PK" style="shape=partialRectangle;connectable=0;fillColor=none;top=0;left=0;bottom=0;right=0;fontStyle=1;overflow=hidden;" vertex="1" parent="QT_rBOWbVVg_yr-S8wlx-158">
          <mxGeometry width="30.000000000000227" height="30" as="geometry" />
        </mxCell>
        <mxCell id="QT_rBOWbVVg_yr-S8wlx-160" value="id" style="shape=partialRectangle;connectable=0;fillColor=none;top=0;left=0;bottom=0;right=0;align=left;spacingLeft=6;fontStyle=5;overflow=hidden;" vertex="1" parent="QT_rBOWbVVg_yr-S8wlx-158">
          <mxGeometry x="30.000000000000227" width="149.99999999999977" height="30" as="geometry" />
        </mxCell>
        <mxCell id="QT_rBOWbVVg_yr-S8wlx-161" value="" style="shape=partialRectangle;collapsible=0;dropTarget=0;pointerEvents=0;fillColor=none;top=0;left=0;bottom=0;right=0;points=[[0,0.5],[1,0.5]];portConstraint=eastwest;" vertex="1" parent="QT_rBOWbVVg_yr-S8wlx-157">
          <mxGeometry y="60" width="180" height="30" as="geometry" />
        </mxCell>
        <mxCell id="QT_rBOWbVVg_yr-S8wlx-162" value="" style="shape=partialRectangle;connectable=0;fillColor=none;top=0;left=0;bottom=0;right=0;editable=1;overflow=hidden;" vertex="1" parent="QT_rBOWbVVg_yr-S8wlx-161">
          <mxGeometry width="30.000000000000227" height="30" as="geometry" />
        </mxCell>
        <mxCell id="QT_rBOWbVVg_yr-S8wlx-163" value="name" style="shape=partialRectangle;connectable=0;fillColor=none;top=0;left=0;bottom=0;right=0;align=left;spacingLeft=6;overflow=hidden;" vertex="1" parent="QT_rBOWbVVg_yr-S8wlx-161">
          <mxGeometry x="30.000000000000227" width="149.99999999999977" height="30" as="geometry" />
        </mxCell>
        <mxCell id="QT_rBOWbVVg_yr-S8wlx-164" value="" style="shape=partialRectangle;collapsible=0;dropTarget=0;pointerEvents=0;fillColor=none;top=0;left=0;bottom=0;right=0;points=[[0,0.5],[1,0.5]];portConstraint=eastwest;" vertex="1" parent="QT_rBOWbVVg_yr-S8wlx-157">
          <mxGeometry y="90" width="180" height="30" as="geometry" />
        </mxCell>
        <mxCell id="QT_rBOWbVVg_yr-S8wlx-165" value="" style="shape=partialRectangle;connectable=0;fillColor=none;top=0;left=0;bottom=0;right=0;editable=1;overflow=hidden;" vertex="1" parent="QT_rBOWbVVg_yr-S8wlx-164">
          <mxGeometry width="30.000000000000227" height="30" as="geometry" />
        </mxCell>
        <mxCell id="QT_rBOWbVVg_yr-S8wlx-166" value="price" style="shape=partialRectangle;connectable=0;fillColor=none;top=0;left=0;bottom=0;right=0;align=left;spacingLeft=6;overflow=hidden;" vertex="1" parent="QT_rBOWbVVg_yr-S8wlx-164">
          <mxGeometry x="30.000000000000227" width="149.99999999999977" height="30" as="geometry" />
        </mxCell>
        <mxCell id="QT_rBOWbVVg_yr-S8wlx-173" style="edgeStyle=orthogonalEdgeStyle;rounded=0;orthogonalLoop=1;jettySize=auto;html=1;entryX=0;entryY=0.5;entryDx=0;entryDy=0;" edge="1" parent="1" source="QT_rBOWbVVg_yr-S8wlx-170" target="QT_rBOWbVVg_yr-S8wlx-158">
          <mxGeometry relative="1" as="geometry" />
        </mxCell>
        <mxCell id="QT_rBOWbVVg_yr-S8wlx-188" style="edgeStyle=orthogonalEdgeStyle;rounded=0;orthogonalLoop=1;jettySize=auto;html=1;entryX=1;entryY=0.5;entryDx=0;entryDy=0;" edge="1" parent="1" source="QT_rBOWbVVg_yr-S8wlx-150" target="QT_rBOWbVVg_yr-S8wlx-2">
          <mxGeometry relative="1" as="geometry" />
        </mxCell>
      </root>
    </mxGraphModel>
  </diagram>
</mxfile>
